General
Complete name                            : Batman - Gotham Knight (HD 1080p).m4v
Format                                   : MPEG-4
Codec ID                                 : M4V 
File size                                : 4.02 GiB
Duration                                 : 1h 15mn
Overall bit rate mode                    : Variable
Overall bit rate                         : 7 582 Kbps
Movie name                               : Batman: Gotham Knight
Performer                                : Kevin Conroy, Gary Dourdan, Jason Marsden, Jim Meskimen, David McCallum, Andrea Romano, Corey Burton, Scott Menville, George Newbern, Corey Padnos, Crystal Scales, Alanna Ubach, Hynden Walch, Pat Musick, Will Friedle, Kevin Michael Richardson, Brian George, Ana Ortiz, Rob Paulsen
Genre                                    : Animation, Action, Adventure, Family
Recorded date                            : 2008-07-08
Encoded date                             : UTC 2012-08-13 18:10:54
Tagged date                              : UTC 2012-08-13 18:42:41
Cover                                    : Yes
desc                                     : Explore Bruce Wayne's transition from his beginning as a tormented vigilantee to The Dark Knight of a crumbling metropolis with six distinct chapters but intended to be viewed as a whole.
ldes                                     : Explore Bruce Wayne's transition from his beginning as a tormented vigilantee to The Dark Knight of a crumbling metropolis with six distinct chapters but intended to be viewed as a whole.
hdvd                                     : 2
stik                                     : 9
rtng                                     : 0
iTunEXTC                                 : mpaa|PG-13|300|

Video #1
ID                                       : 1
Format                                   : AVC
Format/Info                              : Advanced Video Codec
Format profile                           : High@L4.1
Format settings, CABAC                   : Yes
Format settings, ReFrames                : 4 frames
Muxing mode                              : Container profile=Main@3.1
Codec ID                                 : avc1
Codec ID/Info                            : Advanced Video Coding
Duration                                 : 1h 15mn
Bit rate mode                            : Variable
Bit rate                                 : 7 404 Kbps
Width                                    : 1 920 pixels
Height                                   : 1 080 pixels
Display aspect ratio                     : 16:9
Frame rate mode                          : Variable
Frame rate                               : 23.976 fps
Minimum frame rate                       : 23.810 fps
Maximum frame rate                       : 24.390 fps
Color space                              : YUV
Chroma subsampling                       : 4:2:0
Bit depth                                : 8 bits
Scan type                                : Progressive
Bits/(Pixel*Frame)                       : 0.149
Stream size                              : 3.92 GiB (97%)
Writing library                          : x264 core 60 r895M 16b8f79
Encoding settings                        : cabac=1 / ref=4 / deblock=1:1:1 / analyse=0x3:0x113 / me=umh / subme=7 / rdcmp=psy / brdo=1 / mixed_ref=1 / me_range=16 / chroma_me=1 / trellis=0 / 8x8dct=1 / cqm=0 / deadzone=9,6 / chroma_qp_offset=0 / threads=6 / nr=0 / decimate=0 / mbaff=0 / bframes=3 / b_pyramid=1 / b_adapt=1 / b_bias=0 / direct=1 / wpredb=1 / bime=1 / keyint=250 / keyint_min=25 / scenecut=40(pre) / rc=2pass / bitrate=7404 / ratetol=2.0 / rceq='blurCplx^(1-qComp)' / qcomp=1.00 / qpmin=10 / qpmax=51 / qpstep=4 / cplxblur=20.0 / qblur=0.5 / vbv_maxrate=38000 / vbv_bufsize=30000 / ip_ratio=1.40 / pb_ratio=1.30 / aq=2:1.00
Language                                 : English
Encoded date                             : UTC 2012-08-13 18:10:54
Tagged date                              : UTC 2012-08-13 18:13:39

Video #2
ID                                       : 5
Format                                   : JPEG
Codec ID                                 : jpeg
Duration                                 : 1h 15mn
Bit rate mode                            : Variable
Bit rate                                 : 220 bps
Width                                    : 640 pixels
Height                                   : 360 pixels
Display aspect ratio                     : 16:9
Frame rate mode                          : Variable
Frame rate                               : 0.002 fps
Minimum frame rate                       : 0.001 fps
Maximum frame rate                       : 0.017 fps
Color space                              : YUV
Chroma subsampling                       : 4:2:0
Bit depth                                : 8 bits
Compression mode                         : Lossy
Bits/(Pixel*Frame)                       : 0.477
Stream size                              : 108 KiB (0%)
Language                                 : English
Encoded date                             : UTC 2012-08-13 18:13:47
Tagged date                              : UTC 2012-08-13 18:13:47

Audio
ID                                       : 2
Format                                   : AAC
Format/Info                              : Advanced Audio Codec
Format profile                           : LC
Codec ID                                 : 40
Duration                                 : 1h 15mn
Bit rate mode                            : Variable
Bit rate                                 : 197 Kbps
Maximum bit rate                         : 307 Kbps
Channel(s)                               : 2 channels
Channel positions                        : Front: L R
Sampling rate                            : 48.0 KHz
Compression mode                         : Lossy
Delay relative to video                  : 84ms
Stream size                              : 107 MiB (3%)
Language                                 : English
Encoded date                             : UTC 2012-08-13 18:10:54
Tagged date                              : UTC 2012-08-13 18:13:41

Text #1
ID                                       : 3
Format                                   : Timed text
Muxing mode                              : sbtl
Codec ID                                 : tx3g
Duration                                 : 1h 10mn
Bit rate mode                            : Variable
Bit rate                                 : 49 bps
Delay relative to video                  : 84ms
Stream size                              : 25.2 KiB (0%)
Language                                 : English
Encoded date                             : UTC 2012-08-13 18:10:54
Tagged date                              : UTC 2012-08-13 18:13:39

Text #2
ID                                       : 4
Format                                   : Apple text
Codec ID                                 : text
Duration                                 : 1h 15mn
Bit rate mode                            : Variable
Bit rate                                 : 0 bps
Delay relative to video                  : 84ms
Stream size                              : 219 Bytes (0%)
Language                                 : English
Encoded date                             : UTC 2012-08-13 18:13:41
Tagged date                              : UTC 2012-08-13 18:13:41

Menu
00:00:00.000                             : Intro
00:00:59.000                             : Have I got a story for you
00:12:49.000                             : Crossfire
00:24:49.000                             : Field Test
00:35:46.000                             : In Darkness Dwells
00:46:21.000                             : Working Through Pain
00:59:26.000                             : Deadshot
01:10:51.000                             : End Credits